<svg width="480" height="114" viewBox="0 0 480 114" fill="none" xmlns="http://www.w3.org/2000/svg">
<rect width="188" height="114" fill="#00479D"/>
<rect x="9.5" y="7.5" width="464" height="99" fill="#EAF4FF"/>
<rect x="9.5" y="7.5" width="464" height="99" stroke="#00479D"/>
<path d="M111.48 28.6328V35.6055H114.844V38.4766H111.48V46.4609H107.953V28.6328H111.48ZM104.699 30.4922C104.699 37.2188 100.488 41.9219 93.0234 44.0273L91.5742 41.2656C97.1387 39.707 100.297 36.8223 100.871 33.3359H92.668V30.4922H104.699ZM112.328 50.2891V53.0781H95.293V44.6289H98.8203V50.2891H112.328ZM137.75 28.6328V46.9531H134.278V40.8281H131.106V37.957H134.278V35.7969H131.106V33.0078H134.278V28.6328H137.75ZM130.668 30.4102V33.1992H128.617V40.7461C129.451 40.6914 130.272 40.6094 131.051 40.5273L131.188 43.0703C126.539 43.8359 121.07 43.9453 117.133 43.9453L116.778 41.1016L119.43 41.0742V33.1992H117.406V30.4102H130.668ZM138.352 50.2891V53.0781H121.207V45.5859H124.707V50.2891H138.352ZM122.793 41.0195L125.281 40.9375V33.1992H122.793V41.0195ZM164.567 40.9375V43.6992H155.188V47.9922H151.743V43.6992H141.789V40.9375H164.567ZM161.641 29.7266V38.8867H144.633V29.7266H161.641ZM148.051 32.4336V36.1797H158.223V32.4336H148.051ZM162.051 50.2891V53.0781H144.469V45.832H147.942V50.2891H162.051ZM174.922 30.3008C178.86 30.2734 181.813 32.8438 181.813 36.3984C181.813 39.9805 178.86 42.5234 174.922 42.5234C170.985 42.5234 168.004 39.9805 168.004 36.3984C168.004 32.8438 170.985 30.2734 174.922 30.3008ZM174.922 33.3086C172.954 33.3086 171.45 34.457 171.477 36.3984C171.45 38.3672 172.954 39.4883 174.922 39.4883C176.891 39.4883 178.395 38.3672 178.422 36.3984C178.395 34.457 176.918 33.3086 174.922 33.3086ZM187.774 28.6328V53.5703H184.301V28.6328H187.774ZM166.965 45.6406C171.395 45.668 177.547 45.5859 182.879 44.8477L183.153 47.3633C177.629 48.4297 171.723 48.4844 167.375 48.4844L166.965 45.6406Z" fill="#00479D"/>
<path d="M104.43 67.8672V79.3809H103.322V67.8672H104.43ZM104.939 82.0703V83.002H94.5332V78.2734H95.6406V82.0703H104.939ZM97.1875 71.4707C97.1875 73.6504 99.0156 75.5137 101.248 76.2344L100.686 77.1309C98.8662 76.498 97.3369 75.1885 96.6602 73.4746C95.9922 75.3203 94.4717 76.7354 92.6348 77.3945L92.0723 76.5332C94.3047 75.7598 96.0977 73.7734 96.0977 71.4707V70.9609H92.3887V70.0469H96.0977V67.9375H97.2051V70.0469H100.879V70.9609H97.1875V71.4707ZM112.48 70.3281C112.48 72.2441 114.186 74.0723 116.365 74.7754L115.803 75.6543C114.036 75.0566 112.586 73.7822 111.936 72.209C111.276 73.958 109.756 75.373 107.945 76.041L107.365 75.1445C109.562 74.3887 111.373 72.4199 111.373 70.3105V69.6953H107.752V68.7461H116.084V69.6953H112.48V70.3281ZM120.004 67.8672V75.918H118.914V72.3672H115.557V71.418H118.914V67.8672H120.004ZM120.004 76.7441V80.2949H111.18V82.2812H120.654V83.1953H110.09V79.416H118.914V77.6758H110.037V76.7441H120.004ZM134.734 67.8672V74.3535H137.406V75.3027H134.734V83.3711H133.627V67.8672H134.734ZM131.975 70.416V71.3477H122.711V70.416H126.842V68.0254H127.949V70.416H131.975ZM127.422 72.7715C129.602 72.7715 131.166 74.2129 131.166 76.2871C131.166 78.3613 129.602 79.8027 127.422 79.8027C125.242 79.8027 123.66 78.3613 123.678 76.2871C123.66 74.2129 125.242 72.7715 127.422 72.7715ZM127.422 73.7031C125.875 73.7207 124.732 74.8105 124.732 76.2871C124.732 77.7637 125.875 78.8535 127.422 78.8359C128.969 78.8535 130.111 77.7637 130.111 76.2871C130.111 74.8105 128.969 73.7207 127.422 73.7031ZM151.574 67.8672V83.3711H150.502V67.8672H151.574ZM148.34 68.3066V82.5449H147.268V75.2676H143.734C142.768 77.0781 141.256 78.6953 139.094 79.9785L138.426 79.1699C141.889 77.1133 143.682 74.1162 143.928 70.8203H139.041V69.8711H145.018C145.018 71.418 144.745 72.9385 144.156 74.3535H147.268V68.3066H148.34ZM170.33 67.8496V72.666H172.721V73.6152H170.33V79.3457H169.223V67.8496H170.33ZM171.086 82.0703V83.002H160.732V78.1504H161.822V82.0703H171.086ZM162.631 68.9922C164.916 68.9922 166.621 70.5391 166.639 72.7539C166.621 74.9863 164.916 76.5508 162.631 76.5508C160.328 76.5508 158.605 74.9863 158.605 72.7539C158.605 70.5391 160.328 68.9922 162.631 68.9922ZM162.631 69.959C160.961 69.959 159.678 71.1543 159.695 72.7539C159.678 74.3711 160.961 75.5664 162.631 75.5664C164.301 75.5664 165.549 74.3711 165.566 72.7539C165.549 71.1543 164.301 69.959 162.631 69.959ZM187.012 67.8672V83.3711H185.922V75.25H183.408V82.5449H182.354V68.2363H183.408V74.2832H185.922V67.8672H187.012ZM175.744 69.8008V78.2734C177.37 78.2646 179.11 78.1504 181.141 77.7461L181.281 78.748C179.102 79.1523 177.309 79.2754 175.586 79.2578H174.637V69.8008H175.744ZM197.207 70.6445V71.5586H189.332V70.6445H192.707V68.3418H193.832V70.6445H197.207ZM193.27 72.7188C195.203 72.7363 196.592 74.1602 196.592 76.1992C196.592 78.2559 195.203 79.6973 193.27 79.6973C191.336 79.6973 189.947 78.2559 189.947 76.1992C189.947 74.1602 191.336 72.7363 193.27 72.7188ZM193.27 73.668C191.916 73.6855 190.932 74.7754 190.949 76.1992C190.932 77.6406 191.916 78.7305 193.27 78.7129C194.605 78.7305 195.59 77.6406 195.607 76.1992C195.59 74.7754 194.605 73.6855 193.27 73.668ZM202.516 67.8672V83.3711H201.461V75.4082H199.123V82.5801H198.086V68.2539H199.123V74.4766H201.461V67.8672H202.516ZM221.746 75.4082V76.3398H211.129V69.3613H221.588V70.293H212.219V75.4082H221.746ZM223.469 80.2246V81.1738H209.266V80.2246H223.469ZM237.566 67.8672V76.3398H236.459V67.8672H237.566ZM226.861 75.0566C229.604 75.0566 231.73 74.9688 234.332 74.5469L234.473 75.4785C231.783 75.918 229.656 75.9883 226.861 76.0059H225.631V71.7871H231.555V69.5723H225.596V68.6406H232.645V72.7012H226.703V75.0566H226.861ZM228.689 77.166V79.1875H236.477V77.166H237.566V83.1426H227.564V77.166H228.689ZM228.689 82.2285H236.477V80.084H228.689V82.2285ZM253.07 67.8672V83.3711H251.98V67.8672H253.07ZM242.523 69.3965V78.3262H242.664C245.09 78.3262 247.533 78.1328 250.205 77.5703L250.363 78.5371C247.604 79.1172 245.178 79.3105 242.664 79.3105H241.434V69.3965H242.523ZM267.871 67.8672V74.125H270.543V75.0566H267.871V83.3887H266.764V67.8672H267.871ZM257.834 78.502C260.787 78.502 262.791 78.3965 265.146 77.957L265.305 78.9238C262.861 79.3633 260.84 79.4688 257.834 79.4688H256.639V69.3965H263.863V70.3281H257.746V78.502H257.834ZM273.021 82.0879C272.494 82.0879 272.072 81.666 272.072 81.1562C272.072 80.6289 272.494 80.207 273.021 80.207C273.531 80.207 273.953 80.6289 273.953 81.1562C273.953 81.666 273.531 82.0879 273.021 82.0879Z" fill="#00479D"/>
<g clip-path="url(#clip0_73_5257)">
<path d="M67.7195 61.0914L47.6832 73.4195C45.8264 74.559 45.2566 76.9847 46.4029 78.8239C47.281 80.2366 48.9099 80.8963 50.4584 80.6231C50.9343 80.5365 51.4035 80.3632 51.8393 80.0967L71.8755 67.7686C73.7323 66.629 74.3021 64.2034 73.1559 62.3642C72.0096 60.5183 69.5696 59.9519 67.7195 61.0914Z" fill="#00479D"/>
<path d="M70.7287 80.4299C72.4045 79.3704 72.9006 77.158 71.8347 75.492C70.7689 73.8261 68.5501 73.3396 66.8676 74.3925L55.7802 81.4029C54.1044 82.4624 53.6084 84.6748 54.6809 86.3341C55.4853 87.5936 56.96 88.18 58.3476 87.9334C58.7967 87.8535 59.2325 87.6869 59.6414 87.427L70.7287 80.4166V80.4299Z" fill="#00479D"/>
<path d="M51.0551 25.3068C40.4772 27.1926 33.4119 37.2884 35.3089 47.8039C36.0999 52.1887 38.3522 56.1004 41.7039 58.9925L48.481 54.5077C48.2531 54.2079 47.9916 53.928 47.6766 53.6947C45.25 51.9421 43.6211 49.3566 43.0915 46.4178C41.9653 40.1605 46.1616 34.163 52.4561 33.0368C58.7505 31.9173 64.7835 36.0889 65.9164 42.3462C66.4124 45.105 65.8962 47.9039 64.4617 50.2895L44.0769 63.4373C42.2469 64.6168 41.724 67.0491 42.9105 68.8683C43.8021 70.2344 45.4042 70.8675 46.9258 70.5942C47.4286 70.5076 47.9246 70.3144 48.3804 70.0212L69.4758 56.4136C69.9115 56.1337 70.2869 55.7672 70.5819 55.3407C73.5045 51.1092 74.6106 46.0047 73.6989 40.9535C71.7885 30.4446 61.6396 23.4209 51.0551 25.3068Z" fill="#00479D"/>
</g>
<path d="M392.8 54H441.2" stroke="#00479D" stroke-width="1.65"/>
<path d="M429.1 40.8L441.2 54L429.1 67.2" stroke="#00479D" stroke-width="1.65"/>
<g clip-path="url(#clip1_73_5257)">
<path d="M295 84.1134V48.3672L295.163 47.7957C297.28 46.3312 299.402 44.8683 301.527 43.4054L301.53 28.2766C301.65 27.3932 301.915 27.1321 302.805 27H349.175C349.996 27.1273 350.212 27.3566 350.395 28.1589L350.406 43.4006L356.665 47.7002C356.919 47.9612 357.029 48.3099 356.993 48.746V83.7345C356.995 84.6323 356.801 84.8472 355.94 84.9857C335.806 85.0159 315.68 84.9968 295.559 84.9316C295.242 84.7994 295.055 84.5272 294.998 84.1134H295Z" fill="#01428F"/>
<path d="M330.236 67.3895L352.829 82.8319H299.111L321.668 67.407L325.312 69.8489C325.68 70.1529 326.163 70.1593 326.561 69.9046L330.237 67.3895H330.236Z" fill="#C4E0FE"/>
<path d="M319.99 66.2291L296.938 81.9755L296.935 50.4843L319.99 66.2291Z" fill="#C4E0FE"/>
<path d="M354.988 81.9627L331.942 66.2306L355.003 50.4874L354.988 81.9627Z" fill="#C4E0FE"/>
<path d="M354.245 48.6521L350.181 51.4537L350.166 45.8934L354.245 48.6521Z" fill="#C4E0FE"/>
<path d="M301.752 51.4092L297.653 48.668L301.756 45.8871L301.752 51.4092Z" fill="#C4E0FE"/>
<path d="M348.24 52.7876L325.971 67.9801L303.702 52.7892L303.717 29.1489L348.214 29.1505L348.24 52.7876Z" fill="#C4E0FE"/>
<path d="M343.989 34.655H307.942V36.5636H343.989V34.655Z" fill="#01428F"/>
<path d="M343.989 45.524H307.942V47.4311H343.989V45.524Z" fill="#01428F"/>
<path d="M343.04 52.8593L308.939 52.864C308.345 52.864 307.987 52.412 307.957 51.9838C307.92 51.4569 308.285 50.9586 308.93 50.9586H343.003C343.606 50.9586 343.961 51.3932 343.978 51.8819C343.991 52.2735 343.708 52.8593 343.04 52.8593Z" fill="#01428F"/>
<path d="M342.932 40.0912C343.646 40.0912 343.961 40.5321 343.977 41.0399C343.99 41.4633 343.643 41.9934 343.051 41.9934H308.881C308.286 41.9934 307.945 41.4665 307.953 41.0383C307.963 40.5417 308.31 40.0928 308.933 40.0928H342.93L342.932 40.0912Z" fill="#073F84"/>
<path d="M336.896 58.2921L315.098 58.2969C314.473 58.2969 314.067 57.8989 314.049 57.3498C314.035 56.9009 314.395 56.3899 314.998 56.3899H336.937C337.496 56.3899 337.855 56.8292 337.881 57.267C337.91 57.7461 337.587 58.2905 336.896 58.2921Z" fill="#01428F"/>
</g>
<rect x="445" y="79" width="35" height="35" fill="#00479D"/>
<defs>
<clipPath id="clip0_73_5257">
<rect width="39" height="63" fill="white" transform="translate(35 25)"/>
</clipPath>
<clipPath id="clip1_73_5257">
<rect width="62" height="58" fill="white" transform="translate(295 27)"/>
</clipPath>
</defs>
</svg>
