<svg width="67" height="67" viewBox="0 0 67 67" fill="none" xmlns="http://www.w3.org/2000/svg">
<rect x="0.675" y="0.675" width="65.25" height="65.25" rx="6.525" fill="#42D21B"/>
<rect x="0.675" y="0.675" width="65.25" height="65.25" rx="6.525" stroke="#42D21B" stroke-width="1.35"/>
<g clip-path="url(#clip0_73_5208)">
<path d="M33.7177 57.993C33.5857 58.3017 33.3153 58.4435 33.1314 58.4824C32.7957 58.5515 32.397 58.4272 32.2353 58.0495L27.7793 47.6422H15.9629C11.8415 47.6434 8.99877 44.7596 9 40.5818L9.00741 20.4047C9.00864 16.1818 11.9081 13.4962 15.9679 13.5L50.0876 13.5314C53.3562 13.5339 56.6309 15.6297 56.6395 19.1899L56.6988 42.2045C56.0581 45.5288 53.4006 47.6096 50.1135 47.6208L38.1268 47.6623L33.7177 57.993ZM26.2216 35.8155C27.3695 35.8933 28.1792 35.9109 29.2037 35.7892L29.0408 26.8866C29.0013 24.7481 26.8338 23.3677 24.9465 23.4179C24.3491 27.5793 26.1463 26.2528 26.1549 27.3798L26.2191 35.8155H26.2216ZM24.0553 31.4408C23.9479 29.8771 23.2678 28.4452 22.0408 27.76C20.651 26.9832 19.1512 27.1978 17.7799 28.0537L17.6836 23.8308C16.727 23.6952 15.8025 23.7329 14.7656 23.8006L14.8076 35.7139C18.3909 36.379 17.0973 34.6848 19.6055 36.3589C22.2519 35.8557 24.2861 34.8103 24.0541 31.4408H24.0553ZM40.2104 31.7733C40.2104 29.2333 38.1861 27.1752 35.6878 27.1752C33.1894 27.1752 31.1651 29.2333 31.1651 31.7733C31.1651 34.3134 33.1894 36.3715 35.6878 36.3715C38.1861 36.3715 40.2104 34.3134 40.2104 31.7733ZM45.6773 40.5203C45.9933 40.9194 46.8388 40.3572 47.2622 40.3384C49.526 40.2367 51.0171 38.5626 51.022 36.2686L51.043 27.5617C49.9765 26.9455 48.5805 27.7876 47.6634 27.6031C46.1217 27.2932 44.7565 26.9957 43.3666 28.0901C41.1892 29.8043 41.2608 34.4639 43.6308 35.5482C44.1504 35.7867 44.8849 36.2648 45.3564 36.4229C46.2155 36.246 47.1326 35.6587 47.9831 36.1368C47.7189 37.4068 46.7364 37.6703 45.6576 37.5737C45.586 38.5011 45.4946 39.4423 45.6785 40.5191L45.6773 40.5203Z" fill="white"/>
<path d="M26.2214 35.8155L26.1572 27.3797C26.1486 26.2515 24.3514 27.5792 24.9488 23.4178C26.8361 23.3676 29.0036 24.7481 29.0431 26.8865L29.206 35.7891C28.1803 35.9109 27.3706 35.8933 26.2238 35.8155H26.2214Z" fill="#42D21B"/>
<path d="M40.2103 31.7732C40.2103 34.3132 38.186 36.3713 35.6877 36.3713C33.1894 36.3713 31.165 34.3132 31.165 31.7732C31.165 29.2332 33.1894 27.175 35.6877 27.175C38.186 27.175 40.2103 29.2332 40.2103 31.7732ZM37.2429 31.162C36.7467 30.0426 35.7901 29.6737 34.8483 30.2773C34.2028 30.6914 33.6942 31.5875 34.1793 32.5487C34.5225 33.2289 35.4285 33.7999 36.3814 33.3406C37.0652 33.0106 37.6799 32.1472 37.2429 31.162Z" fill="#42D21B"/>
<path d="M37.2426 31.1622C37.6795 32.1474 37.0648 33.0108 36.381 33.3408C35.4281 33.8001 34.5221 33.2279 34.1789 32.549C33.6938 31.5889 34.2024 30.6916 34.8479 30.2775C35.7897 29.6739 36.7451 30.0428 37.2426 31.1622Z" fill="white"/>
<path d="M45.677 40.5204C45.4943 39.4436 45.5856 38.5012 45.656 37.575C46.7348 37.6717 47.7174 37.4081 47.9815 36.1381C47.131 35.66 46.2139 36.2473 45.3548 36.4242C44.8833 36.2674 44.1489 35.788 43.6292 35.5495C41.2593 34.464 41.1889 29.8044 43.3651 28.0914C44.7549 26.9971 46.1201 27.2945 47.6618 27.6044C48.5789 27.7889 49.975 26.9469 51.0414 27.563L51.0205 36.2699C51.0143 38.5639 49.5244 40.2368 47.2606 40.3397C46.8373 40.3585 45.993 40.9207 45.6757 40.5217L45.677 40.5204ZM48.2901 31.7659C48.2901 30.8209 47.5371 30.0554 46.6077 30.0554C45.6782 30.0554 44.9253 30.8209 44.9253 31.7659C44.9253 32.7108 45.6782 33.4764 46.6077 33.4764C47.5371 33.4764 48.2901 32.7108 48.2901 31.7659Z" fill="#42D21B"/>
<path d="M46.6072 33.4764C47.5364 33.4764 48.2896 32.7106 48.2896 31.7659C48.2896 30.8212 47.5364 30.0554 46.6072 30.0554C45.678 30.0554 44.9248 30.8212 44.9248 31.7659C44.9248 32.7106 45.678 33.4764 46.6072 33.4764Z" fill="white"/>
<path d="M24.0541 31.4409C24.2861 34.8104 22.2519 35.8558 19.6055 36.359C17.0973 34.6849 18.3909 36.3791 14.8076 35.714L14.7656 23.8007C15.8025 23.7342 16.727 23.6953 17.6836 23.8309L17.7799 28.0538C19.1512 27.1979 20.651 26.9833 22.0408 27.7601C23.2678 28.4453 23.9479 29.8772 24.0553 31.4409H24.0541ZM20.9941 31.8073C20.9941 30.9201 20.2868 30.201 19.4142 30.201C18.5415 30.201 17.8342 30.9201 17.8342 31.8073C17.8342 32.6946 18.5415 33.4137 19.4142 33.4137C20.2868 33.4137 20.9941 32.6946 20.9941 31.8073Z" fill="#42D21B"/>
<path d="M19.4149 33.4136C20.2875 33.4136 20.9949 32.6944 20.9949 31.8073C20.9949 30.9201 20.2875 30.2009 19.4149 30.2009C18.5423 30.2009 17.835 30.9201 17.835 31.8073C17.835 32.6944 18.5423 33.4136 19.4149 33.4136Z" fill="white"/>
</g>
<defs>
<clipPath id="clip0_73_5208">
<rect width="47.7" height="45" fill="white" transform="translate(9 13.5)"/>
</clipPath>
</defs>
</svg>
