<svg width="67" height="67" viewBox="0 0 67 67" fill="none" xmlns="http://www.w3.org/2000/svg">
<rect x="0.675" y="0.675" width="65.25" height="65.25" rx="6.525" fill="#4267B1"/>
<rect x="0.675" y="0.675" width="65.25" height="65.25" rx="6.525" stroke="#4267B1" stroke-width="1.35"/>
<g clip-path="url(#clip0_73_5218)">
<path d="M46.1367 63H36.7077V39.6865L28.877 39.6841L28.8876 30.564L36.6983 30.5522L36.716 23.3305C36.7796 21.582 37.041 19.9456 37.7005 18.3351C38.7923 15.6038 40.9322 13.565 43.7046 12.5858C45.0885 12.102 46.4664 11.8496 47.9586 11.8295C50.479 11.7941 52.9263 11.9156 55.4372 12.1775L55.4207 20.3125L49.9608 20.3349C48.9479 20.4187 47.9751 20.6192 47.2225 21.2858C46.4853 21.9584 46.2544 22.9058 46.152 23.9098L46.1402 30.5522L55.1675 30.5699L53.991 39.6806L46.1343 39.6853V62.9988L46.1367 63Z" fill="#FDFDFD"/>
<path d="M64.8006 5.41946V60.3843C64.3389 61.7021 63.4415 62.6212 62.0918 63.0011H46.137V39.6877L53.9937 39.6829L55.1702 30.5723L46.1429 30.5546L46.1547 23.9121C46.256 22.9081 46.4868 21.9607 47.2252 21.2882C47.9766 20.6228 48.9506 20.421 49.9635 20.3372L55.4235 20.3148L55.4399 12.1799C52.929 11.9168 50.4817 11.7953 47.9613 11.8318C46.4691 11.8531 45.0912 12.1044 43.7074 12.5881C40.935 13.5662 38.7938 15.6061 37.7033 18.3374C37.0437 19.9479 36.7823 21.5855 36.7187 23.3328L36.701 30.5546L28.8903 30.5664L28.8797 39.6865L36.7104 39.6888V63.0023H7.11986C5.83024 62.5634 4.96813 61.688 4.50293 60.4114V5.30148C5.03762 3.93405 6.06107 2.72001 7.70166 2.72001L61.245 2.69995C63.0587 2.69995 64.3283 3.75826 64.8006 5.41946Z" fill="#4267B1"/>
</g>
<defs>
<clipPath id="clip0_73_5218">
<rect width="60.3" height="60.3" fill="white" transform="translate(4.5 2.69995)"/>
</clipPath>
</defs>
</svg>
