<svg width="67" height="67" viewBox="0 0 67 67" fill="none" xmlns="http://www.w3.org/2000/svg">
<g clip-path="url(#clip0_73_5222)">
<rect width="66.6" height="66.6" rx="7.2" fill="#0073B5"/>
<g clip-path="url(#clip1_73_5222)">
<path d="M3.19957 0C1.31857 0.533039 0.12157 1.97585 0.122906 4.02518L0.13493 64.6407C0.265852 66.7568 1.89837 68.2704 4.0185 68.2704L36.5913 68.2651L36.5993 41.8897L27.7327 41.8616L27.7354 31.5482L36.5873 31.5241L36.6074 23.3482C36.6795 21.3336 36.9868 19.4472 37.7603 17.5983C39.008 14.5524 41.4141 12.2746 44.5201 11.1858C46.0458 10.626 47.5607 10.3989 49.2026 10.3174C52.0668 10.2974 54.8416 10.411 57.7886 10.7129L57.7993 19.9242L51.4697 19.9683C50.3354 20.0791 49.252 20.3276 48.4344 21.1011C47.6168 21.8973 47.3804 22.9928 47.2855 24.1417L47.2802 31.5308L57.4921 31.5428L56.1695 41.8656L47.2735 41.871L47.2708 68.2597L64.789 68.2517C66.6499 68.2517 67.8122 66.881 68.4027 65.306V68.4027H0V0H3.19957Z" fill="#FDFDFD"/>
<path d="M65.333 0H68.4003V3.06731C67.9555 1.51228 66.8894 0.444867 65.333 0Z" fill="#F9FAFC"/>
<g clip-path="url(#clip2_73_5222)">
<path d="M63.8983 63.0498C63.8983 65.5943 61.9534 67.5001 59.4826 67.5001H8.91568C6.45342 67.5001 4.50342 65.5772 4.50342 63.1095L4.5 12.5351C4.5 10.0469 6.42268 8.1001 8.91739 8.1001H59.4826C61.9773 8.1001 63.8983 10.0435 63.8983 12.5351V63.048V63.0498ZM23.2265 21.2701C23.2265 18.4097 20.9077 16.0906 18.0476 16.0906C15.1875 16.0906 12.8686 18.4097 12.8686 21.2701C12.8686 24.1306 15.1875 26.4497 18.0476 26.4497C20.9077 26.4497 23.2265 24.1306 23.2265 21.2701ZM41.5074 37.3706C43.0544 37.1964 44.5656 37.5875 45.5303 38.7692C46.3261 39.7444 46.5685 40.909 46.7188 42.1864L46.7324 58.7292L55.5348 58.7172V40.6512C55.5433 36.6653 53.9792 32.2662 50.2141 30.5311C45.8753 28.5314 39.8408 29.6158 37.0251 33.7673L36.9432 30.4219L28.2313 30.4321V58.7207L36.9807 58.7241L36.9875 43.5885C37.0439 40.5828 38.1128 37.7514 41.5091 37.3689L41.5074 37.3706ZM22.424 30.4236H13.6695V58.7207H22.424V30.4236Z" fill="#0073B5"/>
<path d="M41.5075 37.3706C38.1112 37.7532 37.044 40.5846 36.986 43.5902L36.9791 58.7258L28.2314 58.7224V30.4338L36.9416 30.4236L37.0235 33.769C39.8393 29.6176 45.8737 28.5314 50.2125 30.5329C53.9794 32.2697 55.5435 36.6688 55.5349 40.6529V58.719L46.7309 58.7309L46.7172 42.1882C46.5652 40.9108 46.3245 39.7461 45.5288 38.771C44.564 37.5892 43.0528 37.1982 41.5058 37.3724L41.5075 37.3706Z" fill="#FCFDFE"/>
<path d="M22.4245 30.4236H13.6699V58.7207H22.4245V30.4236Z" fill="#FCFDFD"/>
<path d="M18.0481 26.4497C20.9083 26.4497 23.227 24.1307 23.227 21.2701C23.227 18.4095 20.9083 16.0906 18.0481 16.0906C15.1878 16.0906 12.8691 18.4095 12.8691 21.2701C12.8691 24.1307 15.1878 26.4497 18.0481 26.4497Z" fill="#FCFDFE"/>
</g>
</g>
</g>
<rect x="0.675" y="0.675" width="65.25" height="65.25" rx="6.525" stroke="#0073B5" stroke-width="1.35"/>
<defs>
<clipPath id="clip0_73_5222">
<rect width="66.6" height="66.6" rx="7.2" fill="white"/>
</clipPath>
<clipPath id="clip1_73_5222">
<rect width="68.4" height="68.4" fill="white"/>
</clipPath>
<clipPath id="clip2_73_5222">
<rect width="59.4" height="59.4" fill="white" transform="translate(4.5 8.1001)"/>
</clipPath>
</defs>
</svg>
