<svg width="291" height="106" viewBox="0 0 291 106" fill="none" xmlns="http://www.w3.org/2000/svg">
<path d="M291 99.5H0V0H260L291 32V99.5Z" fill="#506ECF"/>
<path d="M43.5742 19.6328V44.5703H40.0469V19.6328H43.5742ZM30.0664 21.3828C33.8125 21.3828 36.6016 24.8281 36.6016 30.2422C36.6016 35.7109 33.8125 39.1289 30.0664 39.1289C26.2383 39.1289 23.4492 35.7109 23.4766 30.2422C23.4492 24.8281 26.2383 21.3828 30.0664 21.3828ZM30.0664 24.5273C28.125 24.5273 26.8398 26.5508 26.8398 30.2422C26.8398 33.9609 28.125 35.957 30.0664 35.957C31.9531 35.957 33.2383 33.9609 33.2383 30.2422C33.2383 26.5508 31.9531 24.5273 30.0664 24.5273ZM69.3517 19.6328V44.5156H65.9884V19.6328H69.3517ZM64.0744 20.0703V43.3945H60.8205V31.5547H56.3634V28.7109H60.8205V20.0703H64.0744ZM58.0588 22.4492V25.2383H51.9611V36.0664C54.6271 36.0527 56.6369 35.916 58.9611 35.4375L59.2345 38.2812C56.4181 38.8555 53.9025 38.9648 50.2658 38.9648H48.5431V22.4492H58.0588ZM79.5159 21.3828C83.3167 21.3828 86.0511 24.8281 86.0784 30.2422C86.0511 35.7109 83.3167 39.1289 79.5159 39.1289C75.7152 39.1289 72.9261 35.7109 72.9534 30.2422C72.9261 24.8281 75.7152 21.3828 79.5159 21.3828ZM79.5159 24.5273C77.6019 24.5273 76.3167 26.5508 76.3167 30.2422C76.3167 33.9609 77.6019 35.957 79.5159 35.957C81.4573 35.957 82.7152 33.9609 82.7425 30.2422C82.7152 26.5508 81.4573 24.5273 79.5159 24.5273ZM92.4495 19.6328V29.0117H96.1136V31.9102H92.4495V44.5156H88.9495V19.6328H92.4495ZM108.329 21.2734V24.0625H102.176V26.2773H107.399V28.9297H102.176V31.3086C104.897 31.2812 106.879 31.1855 109.176 30.7891L109.532 33.5234C106.661 33.9883 104.282 34.043 100.536 34.043H98.8403V21.2734H108.329ZM119.239 36.1211V44.5156H115.766V38.9102H101.957V36.1211H119.239ZM119.239 19.6602V35.1367H115.93V19.6602H119.239ZM114.29 20.125V34.9727H110.981V28.7656H108.465V25.9492H110.981V20.125H114.29ZM43.7109 53.6602V71.8164H40.2383V62.9023H36.1641V60.0859H40.2383V53.6602H43.7109ZM44.3125 75.2891V78.0781H27.1953V70.2305H30.6953V75.2891H44.3125ZM32.1445 58.5273C32.1445 61.3984 33.8945 64.4883 37.8594 65.7734L36.1367 68.5352C33.375 67.6465 31.4883 65.8281 30.3945 63.5586C29.3008 66.0742 27.3184 68.0703 24.3789 69.0547L22.6016 66.2109C26.7031 64.9258 28.5625 61.6719 28.5898 58.5V58.1172H23.5859V55.3281H37.0938V58.1172H32.1445V58.5273ZM55.5431 61.207C55.5431 64.9805 56.9103 68.7539 60.4377 70.668L58.5236 73.2109C56.2814 72.0625 54.7912 70.0391 53.9298 67.6055C53.0548 70.2578 51.5646 72.5 49.3088 73.8125L47.3127 71.1875C50.8947 69.1094 52.2345 65.0625 52.2619 61.207V60.6328H48.2423V57.8438H52.2619V54.4805H55.5158V57.8438H59.4533V60.6328H55.5431V61.207ZM69.297 53.6328V78.5156H65.9884V53.6328H69.297ZM64.2111 54.043V77.3672H60.9298V65.9102H58.0041V63.0664H60.9298V54.043H64.2111ZM92.9964 61.4805V64.2695H75.5784V54.7539H79.0511V61.4805H92.9964ZM95.512 67.0859V69.875H90.3167V78.5156H86.7894V69.875H81.5667V78.5156H78.0667V69.875H72.8167V67.0859H95.512ZM110.954 56.9141C110.954 60.5508 114.18 64.4609 119.813 65.418L118.282 68.3164C113.948 67.4551 110.721 65.0215 109.122 61.8086C107.467 64.9941 104.241 67.4414 99.9341 68.3164L98.4302 65.418C103.954 64.4336 107.207 60.5234 107.235 56.9141V55.1094H110.954V56.9141ZM120.633 72.582V75.4531H97.8559V72.582H120.633ZM145.673 72.7734V75.6172H122.895V72.7734H132.493V68.1797H125.301V55.2188H128.801V59.0742H139.657V55.2188H143.13V68.1797H135.965V72.7734H145.673ZM128.801 65.3906H139.657V61.8633H128.801V65.3906ZM168.852 53.6328V78.5156H165.325V53.6328H168.852ZM161.387 56.2305C161.387 63.7773 158.735 70.0391 149.848 74.25L148.016 71.4609C154.442 68.4258 157.272 64.4883 157.833 58.9648H149.356V56.2305H161.387Z" fill="white"/>
<g clip-path="url(#clip0_73_5234)">
<rect width="291" height="7" transform="translate(0 99)" fill="#9CA9D7"/>
<path d="M17.7849 108H3L12.2151 99H27L17.7849 108Z" fill="#223C92"/>
<path d="M75.7849 108H61L70.2151 99H85L75.7849 108Z" fill="#223C92"/>
<path d="M133.785 108H119L128.215 99H143L133.785 108Z" fill="#223C92"/>
<path d="M191.785 108H177L186.215 99H201L191.785 108Z" fill="#223C92"/>
<path d="M249.785 108H235L244.215 99H259L249.785 108Z" fill="#223C92"/>
<path d="M46.7849 108H32L41.2151 99H56L46.7849 108Z" fill="#223C92"/>
<path d="M104.785 108H90L99.2151 99H114L104.785 108Z" fill="#223C92"/>
<path d="M162.785 108H148L157.215 99H172L162.785 108Z" fill="#223C92"/>
<path d="M220.785 108H206L215.215 99H230L220.785 108Z" fill="#223C92"/>
<path d="M278.785 108H264L273.215 99H288L278.785 108Z" fill="#223C92"/>
</g>
<path d="M260.5 31.5V0.5L290.5 31.5H260.5Z" fill="#455EAF"/>
<g clip-path="url(#clip1_73_5234)">
<path d="M234.203 68.2423C227.299 63.7521 220.305 60.3866 211.806 61.7287L205.762 45.0967C212.701 40.9387 216.496 33.5771 218.596 26.0705C219.097 24.2798 220.542 23.0961 222.222 23.0051C223.899 22.9157 225.593 23.8616 226.23 25.6135L231.037 38.8361C233.991 38.6591 236.527 40.1446 237.517 42.6704C238.547 45.3025 237.844 48.2532 235.173 50.1686L239.99 63.5953C240.571 65.2123 239.896 66.89 238.752 67.8325C237.607 68.7751 235.756 69.2489 234.205 68.2406L234.203 68.2423Z" fill="white"/>
<path d="M201.004 65.4719L197.919 66.3166C195.155 67.0737 192.252 65.5528 191.272 62.8786L189.195 57.2166C188.501 54.5829 189.677 51.3742 192.433 50.3591L203.254 46.3765C205.341 51.2679 206.486 56.2235 208.781 60.8536C210.456 64.2326 213.251 66.9017 215.17 70.1121C216.432 72.2232 215.853 74.7726 213.993 76.1181C212.142 77.4586 209.178 77.3372 207.754 75.27L201.006 65.4719H201.004Z" fill="white"/>
<path d="M244.56 41.765C243.952 41.9876 242.994 41.4632 242.855 41.0197C242.702 40.5358 243.038 39.4702 243.557 39.2813L253.348 35.7135C253.854 35.5297 254.827 36.1367 254.973 36.6122C255.109 37.0539 254.711 38.0504 254.225 38.2292L244.558 41.7667L244.56 41.765Z" fill="white"/>
<path d="M240.287 34.6242C239.995 35.3104 239.062 35.7454 238.533 35.5094C237.968 35.2565 237.496 34.3645 237.743 33.7845L241.646 24.5917C241.909 23.9729 242.777 23.5952 243.401 23.8076C243.917 23.983 244.382 25.0048 244.14 25.573L240.285 34.6242H240.287Z" fill="white"/>
<path d="M253.475 51.7738C254.169 52.1211 254.506 52.895 254.397 53.4953C254.313 53.964 253.214 54.6317 252.71 54.3771L243.561 49.7622C243.1 49.5295 242.779 48.5853 242.936 48.1688C243.149 47.6006 244.118 47.0762 244.688 47.3628L253.473 51.7721L253.475 51.7738Z" fill="white"/>
</g>
<defs>
<clipPath id="clip0_73_5234">
<rect width="291" height="7" fill="white" transform="translate(0 99)"/>
</clipPath>
<clipPath id="clip1_73_5234">
<rect width="66" height="54" fill="white" transform="translate(189 23)"/>
</clipPath>
</defs>
</svg>
