<svg width="467" height="96" viewBox="0 0 467 96" fill="none" xmlns="http://www.w3.org/2000/svg">
<g clip-path="url(#clip0_123_3)">
<path d="M135.199 22.9365H129.272V25.47L135.199 26.172V47.3535L117.433 22.9365H107.254V25.4925L111.034 25.893L111.673 26.7705V55.5705L107.083 56.2185V58.7565H111.673H114.769H120.696V56.2185L114.769 55.494V31.023L135.122 58.995H138.295V51.606V26.154L142.885 25.47V22.9365H138.295H135.199Z" fill="white"/>
<path d="M170.019 55.899H157.995C157.905 51.327 157.9 46.683 157.9 41.7915H164.907L165.568 46.4445H168.354V34.2405H165.568L164.866 38.9475H157.9C157.9 34.515 157.909 30.123 157.995 25.812H168.943L170.082 32.3865H173.857L173.479 22.932H146.268V25.47L150.808 25.965C150.898 30.5325 150.903 35.118 150.903 39.672V42.0165C150.903 46.6425 150.898 51.228 150.808 55.7235L146.268 56.2185V58.7565H174.559L174.937 49.302H171.162L170.023 55.8945L170.019 55.899Z" fill="white"/>
<path d="M210.596 58.995H214.344L223.655 26.1495L228.029 25.47V22.9365H224.568H221.49H216.171V25.47L220.59 26.1405L213.998 49.6485L206.829 26.0955L211.937 25.47V22.9365H205.866H202.217H196.542V25.47L201.245 26.037L193.892 49.4955L187.727 25.9965L192.227 25.47V22.9365H186.921H179.582H176.535V25.47L180.455 25.9065L190.17 58.995H193.883L202.055 32.6115L210.596 58.995Z" fill="white"/>
<path d="M244.004 37.8315L241.682 36.8415C238.118 35.37 236.161 33.6285 236.161 30.5055C236.161 27.009 238.991 24.984 242.627 24.984C244.117 24.984 245.381 25.2719 246.65 25.8794L247.73 32.1255H251.843L252.226 24.8264C249.746 23.0984 246.448 22.0229 242.713 22.0229C235.18 22.0229 229.942 25.884 229.942 32.229C229.942 37.9755 233.663 41.148 239.608 43.6814L241.777 44.6084C245.741 46.2465 247.492 47.673 247.492 50.8455C247.492 54.405 244.765 56.7 240.287 56.7C238.109 56.7 236.498 56.3174 234.806 55.5389L233.735 49.0185H229.582L229.258 56.817C232.057 58.563 236.318 59.6609 240.368 59.6609C248.698 59.6609 253.805 55.458 253.805 49.086C253.805 43.812 251.011 40.761 244.004 37.8269V37.8315Z" fill="white"/>
<path d="M294.026 48.3885L292.482 55.8585H281.592C281.502 51.3225 281.498 46.827 281.498 42.9795V39.6765C281.498 35.1 281.502 30.519 281.592 25.9875L286.353 25.4745V22.9365H269.865V25.4745L274.406 25.9695C274.496 30.492 274.5 35.0775 274.5 39.6765V42.5925C274.5 46.701 274.5 51.201 274.41 55.7235L269.865 56.2185V58.7565H297.275L297.815 48.3885H294.021H294.026Z" fill="white"/>
<path d="M324.73 55.899H312.706C312.616 51.327 312.611 46.683 312.611 41.7915H319.618L320.279 46.4445H323.064V34.2405H320.279L319.577 38.9475H312.611C312.611 34.515 312.62 30.123 312.706 25.812H323.654L324.793 32.3865H328.568L328.19 22.932H300.979V25.47L305.519 25.965C305.609 30.5325 305.614 35.118 305.614 39.672V42.0165C305.614 46.6425 305.609 51.228 305.519 55.7235L300.979 56.2185V58.7565H329.27L329.648 49.302H325.872L324.734 55.8945L324.73 55.899Z" fill="white"/>
<path d="M351.581 22.9365H332.623L332.308 32.7645H336.083L337.195 25.812H344.318C344.408 30.429 344.417 35.0685 344.417 39.672V42.0165C344.417 46.629 344.413 51.2055 344.323 55.692L339.242 56.223V58.761H356.612V56.223L351.509 55.6965C351.419 51.138 351.415 46.557 351.415 41.9985V39.6765C351.415 34.9965 351.419 30.3615 351.509 25.8165H358.655L359.767 32.769H363.524L363.232 22.941H351.577L351.581 22.9365Z" fill="white"/>
<path d="M385.276 22.9365H366.318L366.003 32.7645H369.778L370.89 25.812H378.013C378.103 30.429 378.112 35.0685 378.112 39.672V42.0165C378.112 46.629 378.108 51.2055 378.018 55.692L372.937 56.223V58.761H390.307V56.223L385.204 55.6965C385.114 51.138 385.11 46.557 385.11 41.9985V39.6765C385.11 34.9965 385.114 30.3615 385.204 25.8165H392.35L393.462 32.769H397.219L396.927 22.941H385.272L385.276 22.9365Z" fill="white"/>
<path d="M424.144 55.899H412.12C412.03 51.327 412.025 46.683 412.025 41.7915H419.032L419.693 46.4445H422.479V34.2405H419.693L418.991 38.9475H412.025C412.025 34.515 412.034 30.123 412.12 25.812H423.068L424.207 32.3865H427.982L427.604 22.932H400.393V25.47L404.933 25.965C405.023 30.5325 405.028 35.118 405.028 39.672V42.0165C405.028 46.6425 405.023 51.228 404.933 55.7235L400.393 56.2185V58.7565H428.684L429.062 49.302H425.287L424.148 55.8945L424.144 55.899Z" fill="white"/>
<path d="M461.956 55.755L460.305 48.726C459.261 44.0775 457.407 41.733 452.817 40.9995C459.463 39.8835 462.181 36.0855 462.181 32.1615C462.181 26.3655 457.402 22.9365 449.019 22.9365H432.733V25.4745L437.274 25.9695C437.364 30.537 437.368 35.1225 437.368 39.6765V42.021C437.368 46.647 437.364 51.2325 437.274 55.728L432.733 56.223V58.761H449.001V56.223L444.379 55.719C444.294 51.327 444.289 46.8765 444.289 42.237H446.611C450.459 42.237 452.119 43.4475 452.92 47.448L454.518 54.963C455.107 58.32 457.2 59.4225 461.182 59.4225C463.239 59.4225 464.314 59.2245 466.101 58.7655V56.2275L461.952 55.764L461.956 55.755ZM444.289 39.51C444.289 34.6275 444.289 30.1815 444.384 25.74H447.876C452.875 25.74 455.269 28.026 455.269 32.463C455.269 36.3825 453.055 39.5145 447.462 39.5145H444.294L444.289 39.51Z" fill="white"/>
<path d="M186.79 80.316C186.129 79.8255 185.377 79.578 184.531 79.578C183.685 79.578 182.934 79.8255 182.268 80.316C181.602 80.8065 181.084 81.4995 180.715 82.395C180.342 83.2905 180.157 84.33 180.157 85.5225C180.157 86.715 180.342 87.7635 180.715 88.659C181.089 89.5545 181.606 90.243 182.268 90.7335C182.934 91.2195 183.685 91.467 184.531 91.467C185.377 91.467 186.129 91.224 186.79 90.7335C187.452 90.2475 187.969 89.5545 188.338 88.659C188.712 87.7635 188.896 86.7195 188.896 85.5225C188.896 84.3255 188.712 83.2905 188.338 82.395C187.965 81.4995 187.452 80.8065 186.79 80.316ZM186.835 87.813C186.615 88.47 186.304 88.9695 185.904 89.3205C185.503 89.6715 185.044 89.847 184.531 89.847C184.018 89.847 183.555 89.6715 183.154 89.3205C182.749 88.9695 182.443 88.47 182.223 87.813C182.007 87.156 181.899 86.391 181.899 85.518C181.899 84.645 182.007 83.871 182.223 83.2185C182.439 82.566 182.749 82.0665 183.154 81.711C183.559 81.36 184.018 81.1845 184.531 81.1845C185.044 81.1845 185.512 81.36 185.908 81.711C186.304 82.062 186.615 82.566 186.835 83.2185C187.056 83.871 187.164 84.636 187.164 85.518C187.164 86.4 187.056 87.1605 186.835 87.813Z" fill="white"/>
<path d="M193.599 78.3046H191.795V95.2741H193.599V78.3046Z" fill="white"/>
<path d="M201.403 89.6625C200.66 89.721 199.738 89.7525 198.653 89.7615V81.7965H203.32V80.343H196.907V91.26H198.014C199.445 91.2465 200.615 91.2105 201.529 91.1475C202.442 91.0845 203.356 90.9585 204.278 90.7695L204.107 89.2665C203.194 89.46 202.294 89.595 201.407 89.6625H201.403Z" fill="white"/>
<path d="M210.834 78.3046H209.115V95.2291H210.834V78.3046Z" fill="white"/>
<path d="M205.641 84.6765H202.176V86.1705H205.641V94.3965H207.333V78.6825H205.641V84.6765Z" fill="white"/>
<path d="M226.193 78.3046H224.406V95.2291H226.193V86.4631H228.92V84.9331H226.193V78.3046Z" fill="white"/>
<path d="M219.794 80.316C219.142 79.8255 218.395 79.578 217.553 79.578C216.712 79.578 215.969 79.8255 215.312 80.316C214.655 80.8065 214.142 81.4995 213.773 82.395C213.404 83.2905 213.22 84.33 213.22 85.5225C213.22 86.715 213.404 87.7635 213.773 88.659C214.142 89.5545 214.655 90.243 215.312 90.7335C215.969 91.2195 216.716 91.467 217.553 91.467C218.39 91.467 219.137 91.224 219.79 90.7335C220.447 90.2475 220.96 89.5545 221.333 88.659C221.707 87.7635 221.896 86.7195 221.896 85.5225C221.896 84.3255 221.707 83.2905 221.333 82.395C220.96 81.4995 220.447 80.8065 219.794 80.316ZM219.839 87.813C219.623 88.47 219.317 88.9695 218.917 89.3205C218.521 89.6715 218.062 89.847 217.549 89.847C217.036 89.847 216.59 89.6715 216.19 89.3205C215.785 88.9695 215.474 88.47 215.254 87.813C215.033 87.156 214.925 86.391 214.925 85.518C214.925 84.645 215.033 83.871 215.254 83.2185C215.474 82.566 215.785 82.0665 216.181 81.711C216.577 81.36 217.036 81.1845 217.549 81.1845C218.062 81.1845 218.521 81.36 218.917 81.711C219.313 82.062 219.619 82.566 219.839 83.2185C220.055 83.871 220.163 84.636 220.163 85.518C220.163 86.4 220.055 87.1605 219.839 87.813Z" fill="white"/>
<path d="M244.156 78.3225H242.446V88.8075H244.156V78.3225Z" fill="white"/>
<path d="M240.839 88.6906V78.6691H239.12V82.7056H237.023V84.1861H239.12V88.6906H240.839Z" fill="white"/>
<path d="M232.587 91.0261H242.388V95.2291H244.156V89.5591H232.587V91.0261Z" fill="white"/>
<path d="M237.807 87.4621L237.627 86.0086C236.741 86.1706 235.854 86.2831 234.977 86.3461C234.234 86.3956 233.303 86.4226 232.196 86.4316V84.3121H236.246V82.9126H232.196V80.9281H236.925V79.4926H230.477V87.8716H231.57C233.033 87.8716 234.207 87.8446 235.094 87.7906C235.98 87.7366 236.885 87.6286 237.803 87.4666L237.807 87.4621Z" fill="white"/>
<path d="M253.089 79.1415V83.9025V84.6135V85.365H264.811V83.9025H254.911V79.1415H253.089Z" fill="white"/>
<path d="M251.163 89.0956H255.042V95.2291H256.829V89.0956H260.937V95.2291H262.733V89.0956H266.594V87.6331H251.163V89.0956Z" fill="white"/>
<path d="M276.16 79.4476H274.585V80.7121C274.585 81.6076 274.302 82.4716 273.735 83.3086C273.168 84.1456 272.412 84.8611 271.467 85.4506C270.522 86.0401 269.514 86.4451 268.434 86.6611L269.235 88.1641C270.481 87.8851 271.629 87.3901 272.682 86.6701C273.735 85.9546 274.576 85.0771 275.206 84.0421C275.332 83.8396 275.44 83.6281 275.539 83.4211C275.643 83.6371 275.751 83.8486 275.881 84.0556C276.516 85.0951 277.362 85.9681 278.41 86.6791C279.463 87.3901 280.606 87.8851 281.839 88.1596L282.64 86.6566C281.569 86.4541 280.561 86.0581 279.607 85.4596C278.658 84.8656 277.893 84.1456 277.321 83.2996C276.75 82.4581 276.462 81.5896 276.462 80.7031V79.4386H276.151L276.16 79.4476Z" fill="white"/>
<path d="M283.369 91.5255H267.88V93.006H283.369V91.5255Z" fill="white"/>
<path d="M299.12 78.3046H297.419V95.2291H299.12V78.3046Z" fill="white"/>
<path d="M293.954 84.2985H291.934V85.7565H293.954V94.356H295.646V78.6915H293.954V84.2985Z" fill="white"/>
<path d="M289.548 89.5456C288.751 89.5951 287.851 89.6221 286.861 89.6311V86.1616H291.15V80.1271H285.106V81.5806H289.44V84.7081H285.133V91.1296H286.285C287.613 91.1161 288.747 91.0801 289.692 91.0216C290.637 90.9631 291.631 90.8371 292.689 90.6481L292.549 89.1766C291.496 89.3656 290.497 89.4916 289.552 89.5501L289.548 89.5456Z" fill="white"/>
<path d="M313.646 84.5551H310.275V86.0176H313.646V95.2741H315.432V78.3046H313.646V84.5551Z" fill="white"/>
<path d="M307.553 89.694C306.55 89.757 305.321 89.7885 303.89 89.7885V86.004H309.29V84.5685H303.89V81.2925H310.001V79.821H302.086V91.269H303.4C305.042 91.269 306.446 91.233 307.612 91.161C308.777 91.089 309.952 90.963 311.135 90.7785L310.946 89.316C309.808 89.505 308.678 89.6355 307.558 89.703L307.553 89.694Z" fill="white"/>
<path d="M57.4697 49.8015C56.7002 48.555 55.0622 48.1725 53.8202 48.942L40.3697 57.267C39.1232 58.0365 38.7407 59.6745 39.5102 60.9165C40.0997 61.8705 41.1932 62.3205 42.2327 62.1315C42.5522 62.073 42.8672 61.956 43.1597 61.776L56.6102 53.451C57.8567 52.6815 58.2392 51.0435 57.4697 49.8015Z" fill="white"/>
<path d="M56.5787 58.6666C55.8632 57.5416 54.3737 57.2086 53.2442 57.9241L45.8012 62.6581C44.6762 63.3736 44.3432 64.8676 45.0587 65.9926C45.5987 66.8431 46.5887 67.2391 47.5202 67.0726C47.8217 67.0186 48.1142 66.9061 48.3887 66.7306L55.8317 61.9966C56.9567 61.2811 57.2897 59.7871 56.5742 58.6666H56.5787Z" fill="white"/>
<path d="M37.9441 50.5215C36.7156 51.318 36.3646 52.9605 37.1611 54.189C37.7596 55.1115 38.8351 55.539 39.8566 55.3545C40.1941 55.296 40.5271 55.1655 40.8331 54.9675L54.9946 45.7785C55.2871 45.5895 55.5391 45.342 55.7371 45.054C57.6991 42.1965 58.4416 38.7495 57.8296 35.3385C56.5561 28.2375 49.7386 23.4945 42.6376 24.768C35.5366 26.0415 30.7936 32.859 32.0671 39.96C32.5981 42.921 34.1101 45.5625 36.3601 47.5155L40.9096 44.487C40.7566 44.2845 40.5811 44.0955 40.3696 43.938C38.7406 42.7545 37.6471 41.0085 37.2916 39.024C36.5356 34.7985 39.3526 30.7485 43.5781 29.988C47.8036 29.232 51.8536 32.049 52.6141 36.2745C52.9471 38.1375 52.6006 40.0275 51.6376 41.6385L37.9531 50.517L37.9441 50.5215Z" fill="white"/>
<path d="M14.1222 26.044L12.9922 27.9321L21.0314 32.7435L22.1614 30.8553L14.1222 26.044Z" fill="white"/>
<path d="M23.1078 29.268L24.7998 27.441C25.4433 26.7435 25.8663 26.0145 26.0598 25.2495C26.2578 24.4845 26.2218 23.7285 25.9608 22.977C25.6953 22.2255 25.2093 21.5235 24.5028 20.8665C23.7918 20.2095 23.0538 19.7775 22.2888 19.575C21.5193 19.368 20.7633 19.395 20.0163 19.647C19.2693 19.899 18.5718 20.376 17.9238 21.0735L17.0868 21.9735L15.5928 23.589L22.4688 29.9565L23.1078 29.268ZM19.2378 22.428C19.6203 22.0185 20.0028 21.7395 20.3898 21.5955C20.7768 21.4515 21.1863 21.4515 21.6183 21.5955C22.0503 21.7395 22.5093 22.0365 22.9998 22.491C23.4858 22.941 23.8143 23.373 23.9898 23.7915C24.1653 24.21 24.2013 24.6195 24.0933 25.0155C23.9853 25.4115 23.7423 25.8165 23.3643 26.2215L22.5858 27.063L18.4728 23.256L19.2378 22.428Z" fill="white"/>
<path d="M34.0653 20.3625L33.1293 18.8235L29.4618 21.051L28.4268 19.3455L31.8063 17.2935L30.8793 15.7635L27.4998 17.8155L26.4693 16.1145L30.1323 13.8915L29.2008 12.3525L23.6523 15.723L28.5168 23.7285L34.0653 20.3625Z" fill="white"/>
<path d="M36.6487 17.3566L39.8032 16.5196L40.9282 18.2971L43.2187 17.6896L37.7467 9.45007L34.9252 10.1971L34.2637 20.0656L36.5542 19.4581L36.6532 17.3566H36.6487ZM36.8962 12.0691L36.9727 12.0511L38.8582 15.0256L36.7342 15.5881L36.8962 12.0691Z" fill="white"/>
<path d="M44.9731 10.341L44.9866 17.9145L47.1601 17.91L47.1511 10.3365L50.0041 10.332L49.9996 8.5365L42.1201 8.55V10.3455L44.9731 10.341Z" fill="white"/>
<path d="M57.1959 18.0316L53.0604 16.9021L53.5824 14.9806L57.3984 16.0201L57.8664 14.2921L54.0549 13.2526L54.5769 11.3356L58.7169 12.4651L59.1894 10.7281L52.9254 9.01807L50.4639 18.0586L56.7234 19.7686L57.1959 18.0316Z" fill="white"/>
<path d="M59.3909 20.6235C59.7644 21.2985 60.3134 21.8565 61.0379 22.2975C61.7264 22.7205 62.4149 22.95 63.0989 22.9905C63.7829 23.031 64.4084 22.9185 64.9709 22.6575C65.5334 22.3965 65.9924 22.032 66.3434 21.573L64.4444 20.3895C64.2419 20.6235 64.0079 20.79 63.7514 20.889C63.4949 20.988 63.2249 21.0195 62.9369 20.988C62.6489 20.9565 62.3654 20.8485 62.0774 20.673C61.6949 20.439 61.4204 20.142 61.2539 19.7775C61.0874 19.413 61.0379 19.0035 61.1054 18.5445C61.1729 18.0855 61.3709 17.5905 61.6949 17.0595C62.0099 16.5465 62.3564 16.1505 62.7344 15.8805C63.1124 15.6105 63.5039 15.462 63.9044 15.4395C64.3049 15.417 64.7054 15.5295 65.0969 15.768C65.3894 15.948 65.6144 16.1595 65.7764 16.407C65.9384 16.6545 66.0284 16.9245 66.0419 17.208C66.0554 17.4915 65.9924 17.7795 65.8574 18.0675L67.7654 19.2375C68.0804 18.576 68.2154 17.9235 68.1749 17.28C68.1344 16.6365 67.9274 16.0425 67.5629 15.4935C67.1984 14.9445 66.6944 14.4765 66.0554 14.085C65.3399 13.644 64.5974 13.41 63.8279 13.383C63.0629 13.356 62.3249 13.5495 61.6184 13.9635C60.9119 14.382 60.2954 15.021 59.7689 15.8805C59.2469 16.7355 58.9589 17.568 58.9049 18.387C58.8509 19.2015 59.0084 19.9485 59.3864 20.6235H59.3909Z" fill="white"/>
<path d="M42.2331 72.081C41.8101 71.6715 41.2611 71.3475 40.5906 71.109C39.9291 70.8705 39.2946 70.776 38.6961 70.821C38.0931 70.866 37.5756 71.037 37.1346 71.343C36.6936 71.649 36.3786 72.0675 36.1896 72.6075C35.9556 73.2555 35.9781 73.8585 36.2526 74.403C36.5271 74.952 37.0311 75.456 37.7601 75.9195L38.6061 76.4685C38.9166 76.6665 39.1596 76.8465 39.3351 77.0085C39.5106 77.1705 39.6276 77.3325 39.6861 77.49C39.7446 77.6475 39.7446 77.8095 39.6861 77.976C39.6186 78.165 39.5061 78.309 39.3441 78.408C39.1821 78.5115 38.9796 78.5655 38.7411 78.57C38.5026 78.5745 38.2326 78.525 37.9401 78.4215C37.6251 78.309 37.3686 78.1605 37.1616 77.9805C36.9591 77.796 36.8196 77.5845 36.7521 77.3415C36.6846 77.0985 36.6891 76.833 36.7701 76.545L34.7721 75.8295C34.5516 76.5 34.5066 77.1165 34.6416 77.67C34.7766 78.2235 35.0781 78.7095 35.5416 79.128C36.0051 79.5465 36.6081 79.8885 37.3551 80.154C38.0841 80.415 38.7456 80.532 39.3396 80.505C39.9381 80.478 40.4466 80.316 40.8696 80.0145C41.2926 79.713 41.6031 79.29 41.8011 78.7365C42.0441 78.0345 42.0171 77.3865 41.7201 76.7925C41.4231 76.1985 40.8696 75.645 40.0506 75.132L39.3441 74.6865C38.9436 74.43 38.6601 74.187 38.4936 73.953C38.3226 73.719 38.2911 73.476 38.3901 73.224C38.4531 73.053 38.5521 72.9225 38.6961 72.8235C38.8401 72.729 39.0201 72.6795 39.2361 72.675C39.4521 72.6705 39.6996 72.7155 39.9696 72.8145C40.2531 72.918 40.4826 73.044 40.6536 73.1925C40.8246 73.341 40.9371 73.5165 40.9911 73.71C41.0451 73.9035 41.0451 74.1105 40.9911 74.3355L42.9846 75.0465C43.1736 74.502 43.2051 73.971 43.0746 73.458C42.9441 72.945 42.6696 72.4815 42.2421 72.0765L42.2331 72.081Z" fill="white"/>
<path d="M47.0165 72.9901L44.8385 72.9181L44.78 74.6011L43.844 74.5696L43.79 76.1716L44.726 76.2031L44.609 79.6771C44.5865 80.1361 44.6675 80.5186 44.852 80.8291C45.0365 81.1441 45.311 81.3781 45.6755 81.5401C46.04 81.7021 46.481 81.7921 47.003 81.8101C47.4125 81.8236 47.7725 81.8101 48.0875 81.7606L48.146 80.0911C47.795 80.1091 47.5385 80.1136 47.3675 80.0956C47.237 80.0866 47.1335 80.0641 47.048 80.0236C46.9625 79.9831 46.8995 79.9201 46.859 79.8346C46.8185 79.7491 46.796 79.6321 46.8005 79.4881L46.9085 76.2751L48.1775 76.3201L48.2315 74.7181L46.9625 74.6731L47.021 72.9901H47.0165Z" fill="white"/>
<path d="M55.7726 74.736C55.3586 74.2815 54.8546 73.9755 54.2606 73.818C53.6666 73.6605 53.0231 73.674 52.3256 73.854C51.6281 74.034 51.0611 74.34 50.6201 74.7675C50.1791 75.195 49.8911 75.708 49.7561 76.3065C49.6166 76.905 49.6391 77.553 49.8236 78.255C50.0036 78.948 50.3006 79.524 50.7146 79.983C51.1286 80.442 51.6326 80.748 52.2221 80.9055C52.8116 81.063 53.4596 81.0495 54.1571 80.8695C54.8546 80.6895 55.4216 80.3835 55.8626 79.956C56.3036 79.5285 56.5916 79.0155 56.7311 78.4125C56.8661 77.8095 56.8481 77.1615 56.6636 76.4685C56.4791 75.7665 56.1821 75.1905 55.7681 74.736H55.7726ZM54.3821 78.8535C54.2381 79.065 54.0311 79.2045 53.7611 79.272C53.4911 79.344 53.2346 79.3215 53.0006 79.2135C52.7666 79.1055 52.5596 78.9165 52.3841 78.651C52.2086 78.3855 52.0691 78.0615 51.9701 77.6745C51.8711 77.292 51.8306 76.941 51.8576 76.626C51.8846 76.311 51.9701 76.05 52.1231 75.8385C52.2761 75.627 52.4876 75.4875 52.7576 75.4155C53.0231 75.3435 53.2751 75.366 53.5046 75.4785C53.7341 75.591 53.9366 75.78 54.1031 76.0455C54.2741 76.311 54.4091 76.635 54.5036 77.0085C54.6026 77.3865 54.6431 77.7375 54.6251 78.057C54.6071 78.3765 54.5261 78.642 54.3821 78.849V78.8535Z" fill="white"/>
<path d="M59.9262 73.242C59.9172 72.9945 59.9712 72.765 60.0882 72.5535C60.2052 72.342 60.3807 72.1665 60.6102 72.0225C60.7317 71.946 60.8712 71.874 61.0242 71.802C61.1817 71.73 61.3077 71.685 61.4067 71.6625L60.3987 70.0515C60.1917 70.119 60.0027 70.209 59.8317 70.317C59.4942 70.5285 59.2647 70.8075 59.1432 71.154C59.0217 71.5005 59.0262 71.901 59.1612 72.351L59.0937 72.3915L58.4232 71.316L56.6367 72.4365L60.3627 78.3945L62.2122 77.238L60.1692 73.9755C60.0207 73.7415 59.9442 73.4985 59.9352 73.251L59.9262 73.242Z" fill="white"/>
<path d="M65.6192 64.323L64.1297 66.069L67.0952 70.3575L67.0457 70.416L62.3432 68.1615L60.8672 69.894L68.0267 72.7065L68.1347 72.918C68.2067 73.053 68.2472 73.1745 68.2517 73.2825C68.2562 73.3905 68.2382 73.485 68.1932 73.575C68.1482 73.665 68.0807 73.764 67.9862 73.872C67.8692 74.007 67.7612 74.1285 67.6622 74.241L67.4102 74.511L68.6702 75.5865C68.8862 75.375 69.1337 75.105 69.4082 74.781C69.9167 74.187 70.1822 73.6065 70.2137 73.044C70.2452 72.4815 70.0922 71.9145 69.7637 71.352L65.6192 64.323Z" fill="white"/>
<path d="M28.877 50.0041L26.807 46.1431L26.213 50.4811L21.8975 51.2551L25.844 53.1631L25.2455 57.5011L28.2785 54.3421L32.2205 56.2501L30.155 52.3891L33.188 49.2301L28.877 50.0041Z" fill="white"/>
<path d="M64.7689 39.3345L64.1704 43.6725L59.8594 44.4465L63.8014 46.3545L63.2074 50.697L66.2404 47.5335L70.1824 49.4415L68.1124 45.5805L71.1499 42.4215L66.8344 43.1955L64.7689 39.3345Z" fill="white"/>
<path d="M69.7227 24.5791C69.8802 24.7546 70.1097 24.8266 70.3212 24.7861C70.4337 24.7636 70.5462 24.7141 70.6362 24.6331C70.9017 24.3946 70.9287 23.9851 70.6902 23.7151C70.5417 23.5486 70.3932 23.3866 70.2447 23.2246C70.0017 22.9636 69.5922 22.9456 69.3267 23.1886C69.0657 23.4316 69.0477 23.8411 69.2907 24.1066C69.4347 24.2641 69.5787 24.4171 69.7182 24.5791H69.7227Z" fill="white"/>
<path d="M74.543 31.7474C74.6735 32.0129 74.9615 32.1524 75.2405 32.1029C75.299 32.0939 75.3575 32.0759 75.4115 32.0489C75.7355 31.8914 75.866 31.5044 75.7085 31.1804C75.515 30.7844 75.3125 30.3884 75.101 30.0014C74.93 29.6864 74.5385 29.5694 74.2235 29.7404C73.9085 29.9114 73.7915 30.3029 73.9625 30.6179C74.165 30.9914 74.3585 31.3694 74.5475 31.7519L74.543 31.7474Z" fill="white"/>
<path d="M76.9994 38.7C77.0939 39.114 77.1794 39.5325 77.2604 39.9465C77.3279 40.2975 77.6609 40.527 78.0119 40.464C78.0119 40.464 78.0119 40.464 78.0164 40.464C78.3674 40.3965 78.6014 40.059 78.5339 39.708C78.4529 39.276 78.3629 38.8395 78.2639 38.412C78.1829 38.061 77.8364 37.845 77.4854 37.9215C77.1344 38.0025 76.9184 38.349 76.9994 38.7Z" fill="white"/>
<path d="M75.7529 34.551C75.9014 34.947 76.0455 35.352 76.176 35.7525C76.2795 36.063 76.5944 36.243 76.9049 36.189C76.9364 36.1845 76.9635 36.1755 76.995 36.1665C77.337 36.054 77.5215 35.685 77.409 35.3475C77.2695 34.929 77.1209 34.5105 76.9679 34.0965C76.8419 33.759 76.4684 33.5925 76.1309 33.7185C75.7934 33.8445 75.6269 34.218 75.7529 34.5555V34.551Z" fill="white"/>
<path d="M78.0478 51.084C77.6968 51.021 77.3593 51.2505 77.2918 51.606C77.2153 52.0245 77.1298 52.443 77.0353 52.8525C76.9543 53.2035 77.1748 53.55 77.5258 53.6265C77.6113 53.6445 77.7013 53.649 77.7823 53.631C78.0298 53.586 78.2413 53.397 78.2998 53.136C78.3943 52.7085 78.4843 52.272 78.5653 51.8355C78.6283 51.4845 78.3943 51.1425 78.0433 51.0795L78.0478 51.084Z" fill="white"/>
<path d="M77.0403 55.386C76.6983 55.2735 76.3338 55.458 76.2213 55.8C76.0908 56.2005 75.9468 56.6055 75.7983 57.0015C75.6723 57.339 75.8433 57.7125 76.1808 57.8385C76.2933 57.879 76.4103 57.888 76.5228 57.87C76.7433 57.8295 76.9323 57.681 77.0178 57.456C77.1708 57.042 77.3193 56.6235 77.4588 56.205C77.5713 55.863 77.3868 55.4985 77.0448 55.386H77.0403Z" fill="white"/>
<path d="M75.4661 59.5126C75.1421 59.3551 74.7551 59.4901 74.5976 59.8141C74.4131 60.1966 74.2151 60.5791 74.0171 60.9481C73.8461 61.2631 73.9676 61.6591 74.2826 61.8256C74.4176 61.8976 74.5661 61.9156 74.7056 61.8931C74.8946 61.8571 75.0656 61.7446 75.1646 61.5601C75.3716 61.1731 75.5741 60.7771 75.7676 60.3811C75.9251 60.0571 75.7901 59.6701 75.4661 59.5126Z" fill="white"/>
<path d="M73.0307 28.278C73.1162 28.2645 73.2017 28.2285 73.2782 28.179C73.5752 27.981 73.6562 27.576 73.4537 27.279C73.2062 26.9145 72.9542 26.55 72.6932 26.1945C72.4817 25.9065 72.0767 25.8435 71.7842 26.055C71.4962 26.2665 71.4332 26.6715 71.6447 26.964C71.8967 27.306 72.1397 27.657 72.3782 28.008C72.5267 28.2285 72.7877 28.3275 73.0307 28.2825V28.278Z" fill="white"/>
<path d="M78.4574 46.6831C78.0974 46.6651 77.7959 46.9441 77.7779 47.3041C77.7599 47.7271 77.7329 48.1546 77.6969 48.5776C77.6654 48.9331 77.9309 49.2481 78.2864 49.2796C78.3449 49.2841 78.4034 49.2796 78.4574 49.2706C78.7409 49.2211 78.9614 48.9871 78.9884 48.6856C79.0244 48.2491 79.0559 47.8036 79.0739 47.3626C79.0919 47.0026 78.8129 46.7011 78.4529 46.6831H78.4574Z" fill="white"/>
<path d="M77.6786 42.9749C77.7191 43.3979 77.7461 43.8254 77.7686 44.2439C77.7866 44.6039 78.0926 44.8784 78.4481 44.8604C78.4751 44.8604 78.5021 44.8559 78.5291 44.8514C78.8441 44.7929 79.0781 44.5094 79.0601 44.1809C79.0376 43.7444 79.0061 43.2989 78.9656 42.8579C78.9341 42.5024 78.6191 42.2369 78.2591 42.2729C77.8991 42.3044 77.6381 42.6194 77.6696 42.9794L77.6786 42.9749Z" fill="white"/>
<path d="M73.3362 63.396C73.0392 63.198 72.6342 63.279 72.4362 63.576C72.3192 63.7515 72.1977 63.927 72.0807 64.1025C71.8737 64.395 71.9502 64.8 72.2427 65.007C72.3912 65.1105 72.5622 65.142 72.7287 65.115C72.8907 65.0835 73.0437 64.9935 73.1472 64.845C73.2732 64.665 73.3992 64.4805 73.5207 64.296C73.7187 63.999 73.6377 63.594 73.3407 63.396H73.3362Z" fill="white"/>
<path d="M15.2416 35.388C15.4621 35.3475 15.6556 35.1945 15.7366 34.9695C15.8086 34.7715 15.8851 34.5735 15.9571 34.3755C16.0876 34.0425 15.9211 33.6645 15.5836 33.5385C15.2506 33.408 14.8726 33.5745 14.7466 33.912C14.6656 34.119 14.5891 34.326 14.5171 34.533C14.3956 34.8705 14.5711 35.244 14.9041 35.3655C15.0166 35.406 15.1291 35.415 15.2371 35.3925L15.2416 35.388Z" fill="white"/>
<path d="M23.6115 68.8545C23.355 68.607 22.941 68.6115 22.6935 68.8725C22.446 69.129 22.4505 69.543 22.7115 69.7905C23.022 70.092 23.3415 70.3845 23.661 70.668C23.814 70.8075 24.0165 70.857 24.2055 70.821C24.345 70.794 24.4755 70.7265 24.5745 70.614C24.813 70.3485 24.7905 69.9345 24.5205 69.696C24.2145 69.4215 23.9085 69.138 23.607 68.85L23.6115 68.8545Z" fill="white"/>
<path d="M27.8549 72.297C27.5129 72.0675 27.1709 71.8245 26.8424 71.5815C26.5544 71.37 26.1494 71.4285 25.9334 71.7165C25.7219 72.0045 25.7804 72.4095 26.0684 72.6255C26.4149 72.882 26.7704 73.1295 27.1259 73.3725C27.2699 73.4715 27.4454 73.503 27.6029 73.476C27.7694 73.4445 27.9224 73.35 28.0259 73.2015C28.2284 72.9045 28.1519 72.4995 27.8549 72.3015V72.297Z" fill="white"/>
<path d="M13.8425 52.3665C14.1935 52.3035 14.4275 51.966 14.3645 51.6105L14.342 51.4845C14.2745 51.12 14.216 50.751 14.162 50.3865C14.1125 50.031 13.784 49.7835 13.4285 49.8375C13.073 49.878 12.8255 50.2155 12.8795 50.571C12.9335 50.949 12.9965 51.336 13.064 51.714L13.0865 51.8445C13.1495 52.1955 13.487 52.4295 13.838 52.3665H13.8425Z" fill="white"/>
<path d="M16.4433 58.5001C16.3038 58.1716 15.9213 58.0186 15.5928 58.1581C15.2643 58.2976 15.1113 58.6801 15.2508 59.0086C15.4218 59.4046 15.6018 59.8006 15.7863 60.1876C15.9168 60.4576 16.2048 60.5971 16.4883 60.5476C16.5423 60.5386 16.6008 60.5206 16.6548 60.4936C16.9788 60.3406 17.1138 59.9536 16.9608 59.6296C16.7853 59.2606 16.6098 58.8781 16.4478 58.4956L16.4433 58.5001Z" fill="white"/>
<path d="M13.3422 48.0916C13.6572 48.0331 13.8912 47.7496 13.8732 47.4211C13.8507 47.0071 13.8372 46.5931 13.8327 46.1791C13.8327 45.8191 13.5357 45.5356 13.1757 45.5401C12.8157 45.5401 12.5322 45.8371 12.5322 46.1971C12.5367 46.6246 12.5502 47.0611 12.5727 47.4886C12.5907 47.8486 12.8967 48.1231 13.2522 48.1051C13.2792 48.1051 13.3062 48.1006 13.3332 48.0961L13.3422 48.0916Z" fill="white"/>
<path d="M13.2387 43.794C13.2972 43.7985 13.3512 43.794 13.4052 43.785C13.6887 43.7355 13.9137 43.497 13.9362 43.2C13.9677 42.7905 14.0127 42.3765 14.0622 41.9625C14.1072 41.607 13.8507 41.283 13.4952 41.238C13.1397 41.193 12.8157 41.4495 12.7707 41.805C12.7167 42.2325 12.6762 42.6645 12.6402 43.092C12.6087 43.4475 12.8787 43.7625 13.2342 43.794H13.2387Z" fill="white"/>
<path d="M20.7728 65.7315C20.5478 65.4525 20.1428 65.403 19.8593 65.628C19.5803 65.853 19.5308 66.258 19.7558 66.5415C20.0213 66.8745 20.3003 67.212 20.5793 67.536C20.7368 67.716 20.9663 67.7925 21.1868 67.752C21.2993 67.734 21.4028 67.6845 21.4928 67.6035C21.7628 67.3695 21.7943 66.96 21.5603 66.69C21.2903 66.375 21.0203 66.051 20.7683 65.7315H20.7728Z" fill="white"/>
<path d="M15.3953 55.71C15.2693 55.3185 15.1478 54.918 15.0353 54.5175C14.9363 54.171 14.5808 53.9685 14.2343 54.0675C13.8878 54.1665 13.6898 54.522 13.7843 54.8685C13.9013 55.2825 14.0273 55.701 14.1578 56.106C14.2568 56.4165 14.5763 56.601 14.8868 56.547C14.9138 56.5425 14.9453 56.5335 14.9723 56.5245C15.3143 56.412 15.4988 56.0475 15.3908 55.7055L15.3953 55.71Z" fill="white"/>
<path d="M18.3649 62.262C18.1804 61.956 17.7799 61.8525 17.4739 62.037C17.1679 62.2215 17.0644 62.6175 17.2489 62.928C17.4694 63.297 17.6989 63.666 17.9329 64.026C18.0814 64.251 18.3424 64.3545 18.5899 64.3095C18.6709 64.296 18.7564 64.2645 18.8284 64.215C19.1299 64.017 19.2109 63.6165 19.0174 63.315C18.7924 62.9685 18.5719 62.613 18.3604 62.262H18.3649Z" fill="white"/>
<path d="M13.5989 37.4895C13.4909 37.9035 13.3919 38.3265 13.2974 38.745C13.2209 39.096 13.4414 39.4425 13.7924 39.519C13.8779 39.537 13.9634 39.537 14.0444 39.5235C14.2964 39.4785 14.5079 39.2895 14.5619 39.024C14.6519 38.619 14.7464 38.214 14.8499 37.818C14.9399 37.4715 14.7329 37.116 14.3864 37.026C14.0399 36.936 13.6844 37.143 13.5944 37.4895H13.5989Z" fill="white"/>
<path d="M30.9602 74.16C30.7712 74.061 30.5867 73.962 30.4022 73.8585C30.0872 73.6875 29.6957 73.8 29.5202 74.115C29.3492 74.43 29.4617 74.8215 29.7767 74.997C29.9702 75.105 30.1637 75.2085 30.3572 75.312C30.4922 75.384 30.6362 75.402 30.7712 75.375C30.9602 75.339 31.1357 75.222 31.2302 75.0375C31.3967 74.718 31.2752 74.3265 30.9557 74.16H30.9602Z" fill="white"/>
<path d="M37.9262 4.19392C15.2597 8.25742 0.126169 30.0059 4.19417 52.6724C8.26217 75.3389 30.0062 90.4724 52.6727 86.4044C75.3392 82.3409 90.4727 60.5924 86.4047 37.9259C82.3367 15.2594 60.5927 0.125925 37.9262 4.19392ZM52.6232 86.1479C30.1007 90.1889 8.48717 75.1499 4.44617 52.6229C0.409669 30.1004 15.4487 8.48693 37.9712 4.45043C60.4937 0.409425 82.1072 15.4484 86.1482 37.9754C90.1892 60.4979 75.1502 82.1114 52.6232 86.1524V86.1479Z" fill="white"/>
<path d="M37.3002 0.715451C12.7212 5.12545 -3.69479 28.7099 0.715207 53.2934C5.12521 77.877 28.7097 94.2885 53.2932 89.8784C77.8767 85.4685 94.2882 61.8839 89.8782 37.3004C85.4727 12.7215 61.8837 -3.69455 37.3002 0.715451ZM53.0817 88.7039C29.1462 92.9969 6.18271 77.0174 1.88971 53.0819C-2.40329 29.1465 13.5762 6.18295 37.5117 1.88995C61.4472 -2.40305 84.4107 13.5765 88.7037 37.512C92.9967 61.4474 77.0172 84.4109 53.0817 88.7039Z" fill="white"/>
</g>
<defs>
<clipPath id="clip0_123_3">
<rect width="466.106" height="95.274" fill="white"/>
</clipPath>
</defs>
</svg>
